<svg width="156" height="102" viewBox="0 0 156 102" fill="none" xmlns="http://www.w3.org/2000/svg">
<path d="M77.3536 0.646447C77.1583 0.451184 76.8417 0.451184 76.6464 0.646447L73.4645 3.82843C73.2692 4.02369 73.2692 4.34027 73.4645 4.53553C73.6597 4.7308 73.9763 4.7308 74.1716 4.53553L77 1.70711L79.8284 4.53553C80.0237 4.7308 80.3403 4.7308 80.5355 4.53553C80.7308 4.34027 80.7308 4.02369 80.5355 3.82843L77.3536 0.646447ZM77.5 102L77.5 1L76.5 1L76.5 102L77.5 102Z" fill="white"/>
<path d="M155.354 71.3536C155.549 71.1583 155.549 70.8417 155.354 70.6464L152.172 67.4645C151.976 67.2692 151.66 67.2692 151.464 67.4645C151.269 67.6597 151.269 67.9763 151.464 68.1716L154.293 71L151.464 73.8284C151.269 74.0237 151.269 74.3403 151.464 74.5355C151.66 74.7308 151.976 74.7308 152.172 74.5355L155.354 71.3536ZM0 71.5H155V70.5H0L0 71.5Z" fill="white"/>
<path d="M39 71.5V31.5H114.5V71.5" stroke="white"/>
<path d="M143.045 75.5498C143.015 75.5198 143 75.4984 143 75.4855C143 75.4684 143.006 75.4341 143.019 75.3826C143.032 75.3312 143.043 75.3012 143.051 75.2926C143.06 75.2712 143.079 75.2605 143.109 75.2605C143.139 75.2605 143.249 75.2583 143.437 75.254H143.778L143.9 74.7396C143.913 74.6924 143.928 74.6302 143.945 74.5531C143.962 74.4759 143.977 74.4202 143.99 74.3859C144.003 74.3516 144.016 74.3087 144.029 74.2572C144.042 74.2058 144.059 74.1693 144.08 74.1479C144.102 74.1265 144.123 74.1008 144.145 74.0707C144.166 74.0407 144.196 74.0214 144.235 74.0129C144.273 74.0043 144.312 74 144.35 74C144.428 74.0043 144.481 74.0279 144.511 74.0707C144.541 74.1136 144.556 74.1543 144.556 74.1929C144.556 74.2229 144.537 74.3237 144.498 74.4952C144.46 74.6667 144.417 74.836 144.37 75.0032L144.305 75.2412C144.305 75.2497 144.413 75.254 144.627 75.254H144.955C144.985 75.284 145 75.3076 145 75.3248C145 75.4191 144.972 75.4941 144.916 75.5498H144.228L143.997 76.4823C143.83 77.1683 143.746 77.537 143.746 77.5884C143.746 77.7685 143.804 77.8585 143.92 77.8585C144.07 77.8585 144.215 77.7856 144.357 77.6399C144.498 77.4941 144.612 77.314 144.698 77.0997C144.706 77.074 144.717 77.059 144.73 77.0547C144.743 77.0504 144.775 77.0461 144.826 77.0418H144.852C144.916 77.0418 144.949 77.059 144.949 77.0933C144.949 77.1061 144.942 77.1318 144.929 77.1704C144.908 77.239 144.869 77.3205 144.814 77.4148C144.758 77.5091 144.685 77.6099 144.595 77.717C144.505 77.8242 144.395 77.9143 144.267 77.9871C144.138 78.06 144.008 78.0965 143.875 78.0965C143.746 78.0965 143.624 78.0643 143.508 78C143.392 77.9357 143.309 77.8242 143.257 77.6656C143.249 77.6313 143.244 77.5734 143.244 77.492V77.3762L143.469 76.4759C143.62 75.8714 143.697 75.567 143.701 75.5627C143.701 75.5541 143.592 75.5498 143.373 75.5498H143.045Z" fill="white"/>
<path d="M52.8145 12.8887C52.7814 12.8556 52.7554 12.8344 52.7365 12.8249C52.7176 12.8155 52.6798 12.8084 52.6231 12.8037C52.5664 12.7989 52.4649 12.7919 52.3184 12.7824H52.0846V12.4564H57.0379V12.7824H56.804C56.6151 12.7871 56.4946 12.7942 56.4426 12.8037C56.3907 12.8131 56.3481 12.8415 56.3151 12.8887V16.8429C56.3434 16.8901 56.3836 16.9184 56.4355 16.9279C56.4875 16.9373 56.6103 16.9444 56.804 16.9491H57.0379V17.2751H56.9599C56.8607 17.2609 56.5206 17.2539 55.9395 17.2539C55.3017 17.2539 54.9616 17.2609 54.9191 17.2751H54.8411V16.9491H55.075C55.2734 16.9444 55.3939 16.9373 55.4364 16.9279C55.4789 16.9184 55.5238 16.8901 55.571 16.8429V12.7824H53.5514V14.8091L53.5585 16.8429C53.5869 16.8901 53.627 16.9184 53.679 16.9279C53.7309 16.9373 53.8538 16.9444 54.0475 16.9491H54.2813V17.2751H54.2034C54.1042 17.2609 53.764 17.2539 53.1829 17.2539C52.5452 17.2539 52.205 17.2609 52.1625 17.2751H52.0846V16.9491H52.3184C52.5168 16.9444 52.6373 16.9373 52.6798 16.9279C52.7223 16.9184 52.7672 16.8901 52.8145 16.8429V12.8887Z" fill="white"/>
<path d="M62.1896 23.9362C62.1896 23.9504 62.1755 23.9717 62.1471 24H61.9274C61.918 23.9906 61.8518 23.9268 61.729 23.8087C61.6062 23.6906 61.4999 23.589 61.4101 23.504C61.3204 23.4189 61.1928 23.2748 61.0275 23.0717C60.8621 22.8686 60.7157 22.6772 60.5881 22.4977C60.4606 22.3182 60.3118 22.0796 60.1417 21.782C59.9716 21.4844 59.8252 21.1891 59.7023 20.8962C59.5795 20.6033 59.4496 20.2514 59.3126 19.8404C59.1756 19.4293 59.0693 19.0136 58.9937 18.5932C58.9181 18.1727 58.8496 17.6932 58.7882 17.1546C58.7268 16.6161 58.6984 16.0634 58.7032 15.4965C58.7032 12.1376 59.563 9.51563 61.2826 7.63068C61.3912 7.51257 61.4928 7.40864 61.5873 7.31888C61.6818 7.22912 61.7597 7.15354 61.8211 7.09212C61.8826 7.03071 61.918 7 61.9274 7H62.1471C62.1755 7.02835 62.1896 7.0496 62.1896 7.06378C62.1896 7.0874 62.1424 7.14881 62.0479 7.24802C61.9534 7.34723 61.8306 7.48659 61.6794 7.66611C61.5282 7.84563 61.3582 8.07003 61.1692 8.33931C60.9802 8.60859 60.7889 8.94637 60.5952 9.35265C60.4015 9.75893 60.222 10.2101 60.0567 10.7061C59.8913 11.2022 59.7496 11.7974 59.6315 12.4919C59.5134 13.1863 59.4378 13.9327 59.4047 14.7311C59.3953 14.9107 59.3905 15.1681 59.3905 15.5035C59.3905 17.3413 59.6126 18.9475 60.0567 20.3222C60.5007 21.697 61.1857 22.8638 62.1117 23.8228C62.1636 23.8795 62.1896 23.9173 62.1896 23.9362Z" fill="white"/>
<path d="M65.3961 9.75657C65.3631 9.72351 65.3465 9.69988 65.3465 9.68571C65.3465 9.66681 65.3536 9.62902 65.3678 9.57233C65.382 9.51564 65.3938 9.48257 65.4032 9.47312C65.4127 9.4495 65.4339 9.43769 65.467 9.43769C65.5001 9.43769 65.6205 9.43533 65.8284 9.43061H66.204L66.3386 8.8637C66.3528 8.81174 66.3693 8.74324 66.3882 8.6582C66.4071 8.57316 66.4236 8.51175 66.4378 8.47396C66.452 8.43616 66.4662 8.38892 66.4803 8.33223C66.4945 8.27554 66.5134 8.23539 66.537 8.21176C66.5606 8.18814 66.5843 8.1598 66.6079 8.12673C66.6315 8.09366 66.6646 8.0724 66.7071 8.06295C66.7496 8.0535 66.7921 8.04878 66.8346 8.04878C66.9197 8.0535 66.9787 8.07949 67.0118 8.12673C67.0449 8.17397 67.0614 8.21885 67.0614 8.26137C67.0614 8.29444 67.0401 8.40546 66.9976 8.59442C66.9551 8.78339 66.9079 8.97 66.8559 9.15424L66.785 9.41643C66.785 9.42588 66.9031 9.43061 67.1394 9.43061H67.5008C67.5338 9.46367 67.5504 9.48966 67.5504 9.50855C67.5504 9.61249 67.5197 9.69516 67.4582 9.75657H66.7L66.4449 10.7841C66.2607 11.54 66.1685 11.9462 66.1685 12.0029C66.1685 12.2013 66.2323 12.3006 66.3599 12.3006C66.5252 12.3006 66.6858 12.2202 66.8417 12.0596C66.9976 11.899 67.1228 11.7006 67.2173 11.4644C67.2268 11.436 67.2386 11.4195 67.2527 11.4148C67.2669 11.41 67.3023 11.4053 67.359 11.4006H67.3874C67.4582 11.4006 67.4937 11.4195 67.4937 11.4573C67.4937 11.4715 67.4866 11.4998 67.4724 11.5423C67.4488 11.6179 67.4063 11.7077 67.3449 11.8116C67.2834 11.9155 67.2031 12.0265 67.1039 12.1447C67.0047 12.2628 66.8843 12.362 66.7425 12.4423C66.6008 12.5226 66.4567 12.5627 66.3103 12.5627C66.1685 12.5627 66.0339 12.5273 65.9063 12.4564C65.7788 12.3856 65.6867 12.2628 65.63 12.088C65.6205 12.0502 65.6158 11.9864 65.6158 11.8966V11.7691L65.8638 10.777C66.0292 10.1109 66.1142 9.77547 66.1189 9.77075C66.1189 9.7613 65.9985 9.75657 65.7575 9.75657H65.3961Z" fill="white"/>
<path d="M64.28 19.0396C64.1903 19.0396 64.1454 19.0207 64.1454 18.9829C64.1454 18.9592 64.1832 18.827 64.2588 18.586C64.3344 18.3451 64.4147 18.1065 64.4997 17.8703L64.6202 17.5231C64.6438 17.4381 64.6745 17.3766 64.7123 17.3388H68.0287H68.6664C68.8176 17.3388 68.9074 17.3412 68.9357 17.3459C68.9641 17.3507 68.9806 17.3719 68.9853 17.4097C68.9853 17.4381 68.9452 17.7073 68.8649 18.2175C68.7845 18.7278 68.7397 18.9852 68.7302 18.9899C68.7302 19.023 68.6853 19.0396 68.5956 19.0396C68.5531 19.0396 68.5247 19.0396 68.5105 19.0396C68.4964 19.0396 68.4822 19.0277 68.468 19.0041L68.4538 18.9829C68.4538 18.9545 68.468 18.8482 68.4964 18.664C68.5247 18.4797 68.5389 18.3356 68.5389 18.2317C68.5389 18.0664 68.5082 17.9412 68.4468 17.8561C68.3853 17.7711 68.2554 17.7121 68.057 17.679C68.0334 17.6743 67.8964 17.6695 67.646 17.6648C67.4287 17.6648 67.2917 17.6672 67.235 17.6719C67.1783 17.6766 67.1358 17.6955 67.1075 17.7286C67.1027 17.7333 66.935 18.3923 66.6043 19.7057C66.2736 21.019 66.1083 21.6875 66.1083 21.7111C66.1083 21.7678 66.3162 21.8008 66.7319 21.8103C66.8831 21.8103 66.9799 21.8127 67.0224 21.8174C67.0649 21.8221 67.0862 21.8434 67.0862 21.8812C67.0862 21.9048 67.0791 21.9378 67.0649 21.9804C67.046 22.0654 67.0248 22.115 67.0012 22.1292L66.987 22.1363C66.9728 22.1363 66.9563 22.1363 66.9374 22.1363C66.9138 22.1363 66.7909 22.1339 66.5689 22.1292C66.3469 22.1245 66.028 22.1221 65.6122 22.1221C65.0028 22.1221 64.6154 22.1268 64.4501 22.1363H64.3438C64.3155 22.1079 64.3013 22.0867 64.3013 22.0725C64.3013 22.0583 64.306 22.0158 64.3155 21.9449C64.3344 21.8835 64.358 21.8386 64.3863 21.8103H64.5847H64.6627C65.0406 21.8103 65.265 21.789 65.3359 21.7465C65.3406 21.7418 65.3453 21.7394 65.3501 21.7394C65.3737 21.7253 65.3973 21.678 65.4209 21.5977C65.4445 21.5174 65.539 21.1465 65.7044 20.4852C65.7847 20.1639 65.8508 19.9017 65.9028 19.6986C66.2335 18.3994 66.3988 17.7357 66.3988 17.7073C66.3988 17.6837 66.3303 17.6719 66.1933 17.6719H65.9736C65.6571 17.6719 65.4493 17.6861 65.3501 17.7144C65.1375 17.7617 64.9721 17.8585 64.854 18.005C64.7359 18.1514 64.6084 18.4254 64.4714 18.827C64.4383 18.9309 64.4147 18.9923 64.4005 19.0112C64.3863 19.0301 64.3533 19.0396 64.3013 19.0396H64.28Z" fill="white"/>
<path d="M69.694 15.7161H63.2879V15.2909H69.694V15.7161Z" fill="white"/>
<path d="M70.7853 7.08504C70.7853 7.04724 70.7924 7.02362 70.8065 7.01417C70.8207 7.00472 70.8514 7 70.8987 7H70.9412H71.0475C71.0569 7.00945 71.1231 7.07323 71.2459 7.19133C71.3687 7.30943 71.475 7.411 71.5648 7.49604C71.6545 7.58108 71.7821 7.72516 71.9474 7.9283C72.1128 8.13144 72.2592 8.32277 72.3868 8.50229C72.5143 8.68181 72.6631 8.92038 72.8332 9.21801C73.0033 9.51563 73.1497 9.80853 73.2726 10.0967C73.3954 10.3849 73.5253 10.7368 73.6623 11.1526C73.7993 11.5683 73.9056 11.984 73.9812 12.3998C74.0568 12.8155 74.1253 13.295 74.1867 13.8383C74.2481 14.3815 74.2765 14.9343 74.2717 15.4965C74.2717 16.0492 74.2552 16.5169 74.2221 16.8995C74.0001 19.6018 73.1568 21.7584 71.6923 23.3693C71.5837 23.4874 71.4821 23.5914 71.3876 23.6811C71.2931 23.7709 71.2152 23.8465 71.1538 23.9079C71.0924 23.9693 71.0569 24 71.0475 24H70.9412C70.8798 24 70.8396 23.9953 70.8207 23.9858C70.8018 23.9764 70.79 23.9528 70.7853 23.915C71.0404 23.6599 71.2908 23.367 71.5364 23.0363C72.897 21.2269 73.5773 18.7136 73.5773 15.4965C73.5773 14.5422 73.5159 13.6517 73.393 12.8249C73.2702 11.9982 73.119 11.3037 72.9395 10.7416C72.76 10.1794 72.5403 9.65027 72.2805 9.15423C72.0207 8.65819 71.7844 8.27317 71.5719 7.99917C71.3593 7.72516 71.1254 7.45116 70.8703 7.17716C70.8609 7.16771 70.8514 7.15826 70.842 7.14881C70.8325 7.13936 70.8254 7.12992 70.8207 7.12047C70.816 7.11102 70.8089 7.10393 70.7995 7.09921L70.7853 7.08504Z" fill="white"/>
<path d="M30.6913 33.2765C30.6913 33.433 30.8412 33.5242 31.1411 33.5503C31.2584 33.5503 31.317 33.5861 31.317 33.6578C31.317 33.6643 31.3105 33.7067 31.2975 33.7849C31.2779 33.8762 31.2584 33.9348 31.2388 33.9609C31.2193 33.987 31.1769 34 31.1117 34C31.0987 34 31.0596 34 30.9944 34C30.9292 34 30.8184 33.9967 30.662 33.9902C30.5056 33.9837 30.297 33.9804 30.0363 33.9804C29.5736 33.9804 29.277 33.987 29.1466 34H29.0684C29.0228 33.9544 29 33.9185 29 33.8925C29.013 33.7165 29.0554 33.6024 29.1271 33.5503H29.264C29.7202 33.5307 30.0526 33.3678 30.2612 33.0615C30.3003 33.0223 30.8901 32.0284 32.0307 30.0796C33.1713 28.1308 33.7514 27.1434 33.771 27.1173C33.8166 27.0391 33.8948 27 34.0056 27H34.0838H34.25C34.2891 27.0587 34.3087 27.0912 34.3087 27.0978L34.5824 30.2556C34.7649 32.3608 34.8627 33.4232 34.8757 33.4427C34.9083 33.5144 35.1201 33.5503 35.5112 33.5503C35.6741 33.5503 35.7556 33.5829 35.7556 33.648C35.7556 33.6611 35.7458 33.7067 35.7263 33.7849C35.7067 33.8827 35.6904 33.9413 35.6774 33.9609C35.6643 33.9804 35.6187 33.9935 35.5405 34C35.521 34 35.4753 34 35.4036 34C35.3319 34 35.2048 33.9967 35.0223 33.9902C34.8399 33.9837 34.602 33.9804 34.3087 33.9804C33.696 33.9804 33.2952 33.987 33.1061 34H32.9888C32.9497 33.9609 32.9302 33.9316 32.9302 33.912C32.9302 33.8925 32.9367 33.8338 32.9497 33.736C32.9758 33.6513 32.9953 33.5992 33.0084 33.5796L33.0475 33.5503H33.243C33.595 33.5307 33.8035 33.4753 33.8687 33.3841L33.7514 31.9176H31.4246L31.0922 32.4846C30.825 32.9344 30.6913 33.1983 30.6913 33.2765ZM33.7025 31.4581C33.7025 31.3864 33.6634 30.878 33.5852 29.933C33.507 28.9879 33.4614 28.5121 33.4483 28.5056L33.1844 28.926C33.0801 29.102 32.8748 29.4506 32.5684 29.9721L31.6885 31.4581L32.6955 31.4679C33.3669 31.4679 33.7025 31.4646 33.7025 31.4581Z" fill="white"/>
<path d="M31 80.5679C31 80.5679 31 80.5424 31 80.4914C31 80.4404 31.0275 80.4012 31.0824 80.3737H34.5017C34.5606 80.4051 34.59 80.4443 34.59 80.4914C34.59 80.5385 34.5606 80.5777 34.5017 80.6091H31.0824C31.0275 80.5817 31 80.5424 31 80.4914V80.5679Z" fill="white"/>
<path d="M36.6145 75.4125C36.54 75.4125 36.5027 75.3968 36.5027 75.3654C36.5027 75.3458 36.5341 75.2359 36.5969 75.0358C36.6596 74.8357 36.7263 74.6376 36.797 74.4414L36.897 74.153C36.9166 74.0824 36.9421 74.0314 36.9735 74H39.7278H40.2575C40.383 74 40.4576 74.002 40.4811 74.0059C40.5047 74.0098 40.5184 74.0275 40.5223 74.0589C40.5223 74.0824 40.489 74.306 40.4223 74.7298C40.3556 75.1535 40.3183 75.3673 40.3105 75.3713C40.3105 75.3987 40.2732 75.4125 40.1986 75.4125C40.1633 75.4125 40.1398 75.4125 40.128 75.4125C40.1162 75.4125 40.1045 75.4027 40.0927 75.383L40.0809 75.3654C40.0809 75.3418 40.0927 75.2536 40.1162 75.1005C40.1398 74.9475 40.1516 74.8279 40.1516 74.7415C40.1516 74.6042 40.126 74.5002 40.075 74.4296C40.024 74.359 39.9161 74.31 39.7514 74.2825C39.7317 74.2786 39.618 74.2746 39.41 74.2707C39.2295 74.2707 39.1157 74.2727 39.0687 74.2766C39.0216 74.2805 38.9863 74.2962 38.9627 74.3237C38.9588 74.3276 38.8195 74.8749 38.5449 75.9657C38.2702 77.0564 38.1329 77.6116 38.1329 77.6312C38.1329 77.6783 38.3055 77.7057 38.6508 77.7136C38.7764 77.7136 38.8568 77.7156 38.8921 77.7195C38.9274 77.7234 38.9451 77.7411 38.9451 77.7724C38.9451 77.7921 38.9392 77.8195 38.9274 77.8548C38.9117 77.9255 38.8941 77.9667 38.8745 77.9784L38.8627 77.9843C38.8509 77.9843 38.8372 77.9843 38.8215 77.9843C38.8019 77.9843 38.6999 77.9824 38.5155 77.9784C38.331 77.9745 38.0662 77.9725 37.7209 77.9725C37.2148 77.9725 36.8931 77.9765 36.7558 77.9843H36.6675C36.6439 77.9608 36.6322 77.9431 36.6322 77.9313C36.6322 77.9196 36.6361 77.8843 36.6439 77.8254C36.6596 77.7744 36.6793 77.7371 36.7028 77.7136H36.8676H36.9323C37.2462 77.7136 37.4326 77.6959 37.4914 77.6606C37.4953 77.6567 37.4993 77.6547 37.5032 77.6547C37.5228 77.643 37.5424 77.6037 37.562 77.537C37.5817 77.4703 37.6601 77.1623 37.7975 76.6131C37.8642 76.3463 37.9191 76.1285 37.9622 75.9598C38.2369 74.8808 38.3742 74.3296 38.3742 74.306C38.3742 74.2864 38.3173 74.2766 38.2035 74.2766H38.0211C37.7582 74.2766 37.5856 74.2884 37.5032 74.3119C37.3266 74.3512 37.1893 74.4316 37.0912 74.5532C36.9931 74.6748 36.8872 74.9024 36.7734 75.2359C36.746 75.3222 36.7263 75.3732 36.7146 75.3889C36.7028 75.4046 36.6753 75.4125 36.6322 75.4125H36.6145Z" fill="white"/>
<path d="M37.6209 83.4752C37.515 83.4752 37.4306 83.4399 37.3678 83.3693C37.3051 83.2987 37.2737 83.2124 37.2737 83.1103C37.2737 82.8318 37.3776 82.5905 37.5856 82.3865C37.7935 82.1824 38.0525 82.0804 38.3624 82.0804C38.7195 82.0804 39.0177 82.1903 39.257 82.41C39.4963 82.6297 39.618 82.9142 39.6219 83.2634C39.6219 83.4321 39.5826 83.5929 39.5042 83.746C39.4257 83.899 39.3315 84.0324 39.2217 84.1461C39.1118 84.2599 38.9549 84.4051 38.7509 84.5817C38.6096 84.7033 38.4134 84.8838 38.1623 85.1231L37.8151 85.4527L38.2624 85.4586C38.8784 85.4586 39.206 85.4487 39.2452 85.4291C39.2727 85.4213 39.3198 85.2467 39.3865 84.9053V84.8877H39.6219V84.9053C39.618 84.9171 39.5925 85.0956 39.5454 85.4409C39.4983 85.7862 39.4689 85.9667 39.4571 85.9823V86H37.2737V85.8882V85.8176C37.2737 85.7901 37.2854 85.7607 37.309 85.7293C37.3325 85.6979 37.3914 85.6292 37.4855 85.5233C37.5993 85.3977 37.6974 85.2879 37.7798 85.1937C37.8151 85.1545 37.8818 85.0819 37.9799 84.976C38.078 84.87 38.1447 84.7974 38.18 84.7582C38.2153 84.719 38.2722 84.6542 38.3507 84.564C38.4291 84.4738 38.4841 84.4071 38.5155 84.3639C38.5468 84.3207 38.592 84.2619 38.6508 84.1873C38.7097 84.1128 38.7509 84.05 38.7744 83.999C38.7979 83.948 38.8274 83.8911 38.8627 83.8283C38.898 83.7656 38.9235 83.7028 38.9392 83.64C38.9549 83.5772 38.9686 83.5184 38.9804 83.4635C38.9922 83.4085 38.998 83.3438 38.998 83.2692C38.998 83.0221 38.9313 82.8082 38.7979 82.6278C38.6645 82.4473 38.4743 82.357 38.2271 82.357C38.0976 82.357 37.9838 82.3904 37.8857 82.4571C37.7876 82.5238 37.719 82.5885 37.6797 82.6513C37.6405 82.7141 37.6209 82.7513 37.6209 82.7631C37.6209 82.767 37.6307 82.769 37.6503 82.769C37.7209 82.769 37.7935 82.7965 37.8681 82.8514C37.9426 82.9063 37.9799 82.9966 37.9799 83.1221C37.9799 83.2202 37.9485 83.3026 37.8857 83.3693C37.823 83.436 37.7347 83.4713 37.6209 83.4752Z" fill="white"/>
<path d="M41.1108 80.668H35.7906V80.3149H41.1108V80.668Z" fill="white"/>
<path d="M112.824 75.4125C112.749 75.4125 112.712 75.3968 112.712 75.3654C112.712 75.3458 112.744 75.2359 112.806 75.0358C112.869 74.8357 112.936 74.6376 113.006 74.4414L113.106 74.153C113.126 74.0824 113.152 74.0314 113.183 74H115.937H116.467C116.592 74 116.667 74.002 116.691 74.0059C116.714 74.0098 116.728 74.0275 116.732 74.0589C116.732 74.0824 116.698 74.306 116.632 74.7298C116.565 75.1535 116.528 75.3673 116.52 75.3713C116.52 75.3987 116.483 75.4125 116.408 75.4125C116.373 75.4125 116.349 75.4125 116.337 75.4125C116.326 75.4125 116.314 75.4027 116.302 75.383L116.29 75.3654C116.29 75.3418 116.302 75.2536 116.326 75.1005C116.349 74.9475 116.361 74.8279 116.361 74.7415C116.361 74.6042 116.335 74.5003 116.284 74.4296C116.233 74.359 116.126 74.31 115.961 74.2825C115.941 74.2786 115.827 74.2746 115.619 74.2707C115.439 74.2707 115.325 74.2727 115.278 74.2766C115.231 74.2805 115.196 74.2962 115.172 74.3237C115.168 74.3276 115.029 74.8749 114.754 75.9657C114.48 77.0564 114.342 77.6116 114.342 77.6312C114.342 77.6783 114.515 77.7057 114.86 77.7136C114.986 77.7136 115.066 77.7156 115.102 77.7195C115.137 77.7234 115.154 77.7411 115.154 77.7724C115.154 77.7921 115.149 77.8195 115.137 77.8548C115.121 77.9255 115.103 77.9667 115.084 77.9784L115.072 77.9843C115.06 77.9843 115.047 77.9843 115.031 77.9843C115.011 77.9843 114.909 77.9824 114.725 77.9784C114.54 77.9745 114.276 77.9725 113.93 77.9725C113.424 77.9725 113.103 77.9765 112.965 77.9843H112.877C112.853 77.9608 112.842 77.9431 112.842 77.9313C112.842 77.9196 112.846 77.8843 112.853 77.8254C112.869 77.7744 112.889 77.7371 112.912 77.7136H113.077H113.142C113.456 77.7136 113.642 77.6959 113.701 77.6606C113.705 77.6567 113.709 77.6547 113.713 77.6547C113.732 77.643 113.752 77.6037 113.771 77.537C113.791 77.4703 113.87 77.1623 114.007 76.6131C114.074 76.3463 114.128 76.1285 114.172 75.9598C114.446 74.8808 114.584 74.3296 114.584 74.306C114.584 74.2864 114.527 74.2766 114.413 74.2766H114.231C113.968 74.2766 113.795 74.2884 113.713 74.3119C113.536 74.3512 113.399 74.4316 113.301 74.5532C113.203 74.6748 113.097 74.9024 112.983 75.2359C112.955 75.3222 112.936 75.3732 112.924 75.3889C112.912 75.4046 112.885 75.4125 112.842 75.4125H112.824Z" fill="white"/>
<path d="M113.83 83.4752C113.724 83.4752 113.64 83.4399 113.577 83.3693C113.514 83.2987 113.483 83.2124 113.483 83.1103C113.483 82.8318 113.587 82.5905 113.795 82.3865C114.003 82.1824 114.262 82.0804 114.572 82.0804C114.929 82.0804 115.227 82.1903 115.466 82.41C115.706 82.6297 115.827 82.9142 115.831 83.2634C115.831 83.4321 115.792 83.5929 115.714 83.746C115.635 83.899 115.541 84.0324 115.431 84.1461C115.321 84.2599 115.164 84.4051 114.96 84.5817C114.819 84.7033 114.623 84.8838 114.372 85.1231L114.025 85.4527L114.472 85.4586C115.088 85.4586 115.415 85.4487 115.455 85.4291C115.482 85.4213 115.529 85.2467 115.596 84.9053V84.8877H115.831V84.9053C115.827 84.9171 115.802 85.0956 115.755 85.4409C115.708 85.7862 115.678 85.9667 115.667 85.9823V86H113.483V85.8882V85.8176C113.483 85.7901 113.495 85.7607 113.518 85.7293C113.542 85.6979 113.601 85.6292 113.695 85.5233C113.809 85.3977 113.907 85.2879 113.989 85.1937C114.025 85.1545 114.091 85.0819 114.189 84.976C114.287 84.87 114.354 84.7974 114.389 84.7582C114.425 84.719 114.482 84.6542 114.56 84.564C114.639 84.4738 114.693 84.4071 114.725 84.3639C114.756 84.3207 114.801 84.2619 114.86 84.1873C114.919 84.1128 114.96 84.05 114.984 83.999C115.007 83.948 115.037 83.8911 115.072 83.8283C115.107 83.7656 115.133 83.7028 115.149 83.64C115.164 83.5772 115.178 83.5184 115.19 83.4635C115.202 83.4085 115.207 83.3438 115.207 83.2692C115.207 83.0221 115.141 82.8082 115.007 82.6278C114.874 82.4473 114.684 82.357 114.436 82.357C114.307 82.357 114.193 82.3904 114.095 82.4571C113.997 82.5238 113.928 82.5885 113.889 82.6513C113.85 82.7141 113.83 82.7513 113.83 82.7631C113.83 82.767 113.84 82.769 113.86 82.769C113.93 82.769 114.003 82.7965 114.077 82.8514C114.152 82.9063 114.189 82.9966 114.189 83.1221C114.189 83.2202 114.158 83.3026 114.095 83.3693C114.032 83.436 113.944 83.4713 113.83 83.4752Z" fill="white"/>
<path d="M117.32 80.668H112V80.3149H117.32V80.668Z" fill="white"/>
</svg>
